<?xml version="1.0" encoding="UTF-8" standalone="no"?><!DOCTYPE svg PUBLIC "-//W3C//DTD SVG 1.1//EN" "http://www.w3.org/Graphics/SVG/1.1/DTD/svg11.dtd"><svg width="100%" height="100%" viewBox="0 0 5342 1434" version="1.1" xmlns="http://www.w3.org/2000/svg" xmlns:xlink="http://www.w3.org/1999/xlink" xml:space="preserve" xmlns:serif="http://www.serif.com/" style="fill-rule:evenodd;clip-rule:evenodd;stroke-linejoin:round;stroke-miterlimit:2;"><rect id="Artboard1" x="0" y="0" width="5341.97" height="1433.94" style="fill:none;"/><path d="M1187.74,89.896l-670.136,0c-163.078,0 -296.546,133.469 -296.546,296.547l-0,127.275c-80.142,35.123 -136.112,115.036 -136.112,208.094c-0,93.058 55.97,172.973 136.112,208.096l-0,126.67c-0,163.078 133.468,296.549 296.546,296.549l670.136,-0c163.078,-0 296.549,-133.471 296.549,-296.549l0,-670.135c0,-163.078 -133.471,-296.547 -296.549,-296.547Z" style="fill:#8fa2cc;fill-rule:nonzero;"/><path d="M1138.62,920.618c39.276,-56.119 62.393,-124.402 62.393,-198.049c0,-191.102 -154.919,-346.023 -346.025,-346.023c-191.1,0 -346.094,154.921 -346.094,346.023c0,191.101 154.92,346.02 346.02,346.02c71.378,0 137.624,-21.601 192.69,-58.614l147.14,57.33l-56.124,-146.687Z" style="fill:#c6ddf4;fill-rule:nonzero;"/><path d="M854.996,236.736c-203.869,-0 -378.276,125.613 -450.335,303.571l-75.384,-0c-99.704,-0 -180.752,81.125 -180.752,180.752c-0,99.632 81.123,180.752 180.752,180.752l74.175,0c71.304,179.621 246.543,306.671 451.618,306.671c104.464,-0 201.069,-33.087 280.306,-89.132l-81.047,-31.57c-59.146,32.328 -127.05,50.755 -199.259,50.755c-229.697,0 -415.966,-186.189 -415.966,-415.966c0,-229.773 186.19,-415.964 415.966,-415.964c229.697,0 415.966,186.191 415.966,415.964c0,75.157 -20.017,145.556 -54.84,206.36l30.897,80.594c58.992,-80.442 93.884,-179.621 93.884,-286.954c-0.148,-268.295 -217.686,-485.833 -485.981,-485.833Zm-525.794,593.092l-3.55,0.074c-58.388,-1.884 -105.37,-50.003 -105.37,-108.843c0,-58.461 46.378,-106.351 104.312,-108.768l57.255,0c-8.233,35.501 -12.765,72.361 -12.765,110.357c-0,36.86 4.23,72.736 12.01,107.254l-51.892,-0l0,-0.074Z" style="fill:#fff;fill-rule:nonzero;"/><g transform="matrix(943.959,0,0,943.959,1666.06,1054.26)"><path d="M0.395,0.009c-0.07,0 -0.13,-0.015 -0.18,-0.044c-0.05,-0.029 -0.089,-0.071 -0.116,-0.125c-0.027,-0.055 -0.04,-0.119 -0.04,-0.193c-0,-0.055 0.008,-0.105 0.023,-0.149c0.015,-0.045 0.037,-0.083 0.066,-0.114c0.029,-0.032 0.064,-0.056 0.105,-0.073c0.042,-0.017 0.089,-0.025 0.142,-0.025c0.04,0 0.078,0.006 0.115,0.017c0.037,0.011 0.069,0.027 0.096,0.048c0.011,0.007 0.018,0.016 0.021,0.025c0.003,0.009 0.004,0.018 0.001,0.027c-0.002,0.008 -0.006,0.015 -0.013,0.021c-0.006,0.005 -0.014,0.008 -0.023,0.009c-0.009,-0 -0.019,-0.004 -0.03,-0.011c-0.023,-0.018 -0.049,-0.031 -0.077,-0.039c-0.027,-0.009 -0.057,-0.013 -0.088,-0.013c-0.051,-0 -0.095,0.011 -0.131,0.033c-0.035,0.021 -0.062,0.053 -0.081,0.094c-0.018,0.041 -0.027,0.091 -0.027,0.15c0,0.059 0.009,0.109 0.027,0.151c0.019,0.041 0.046,0.073 0.081,0.095c0.036,0.021 0.08,0.032 0.131,0.032c0.031,-0 0.061,-0.004 0.089,-0.013c0.029,-0.009 0.055,-0.022 0.079,-0.04c0.011,-0.007 0.02,-0.011 0.029,-0.01c0.009,0.001 0.017,0.004 0.023,0.009c0.006,0.005 0.01,0.011 0.012,0.02c0.003,0.008 0.003,0.016 0,0.025c-0.003,0.009 -0.009,0.016 -0.018,0.023c-0.027,0.023 -0.06,0.041 -0.098,0.053c-0.037,0.011 -0.077,0.017 -0.118,0.017Z" style="fill-rule:nonzero;"/></g><g transform="matrix(943.959,0,0,943.959,2289.07,1054.26)"><path d="M0.228,0.009c-0.033,0 -0.064,-0.007 -0.091,-0.02c-0.027,-0.013 -0.048,-0.031 -0.063,-0.054c-0.015,-0.023 -0.022,-0.048 -0.022,-0.076c0,-0.036 0.009,-0.064 0.027,-0.085c0.018,-0.021 0.048,-0.035 0.091,-0.044c0.043,-0.009 0.1,-0.014 0.172,-0.014l0.047,0l0,0.058l-0.045,0c-0.051,0 -0.092,0.002 -0.122,0.007c-0.029,0.005 -0.05,0.013 -0.062,0.025c-0.012,0.011 -0.018,0.027 -0.018,0.048c0,0.026 0.009,0.047 0.027,0.064c0.019,0.017 0.044,0.025 0.076,0.025c0.025,0 0.048,-0.006 0.067,-0.018c0.019,-0.013 0.035,-0.029 0.046,-0.05c0.011,-0.021 0.017,-0.046 0.017,-0.073l0,-0.115c0,-0.039 -0.008,-0.068 -0.024,-0.085c-0.016,-0.018 -0.043,-0.027 -0.081,-0.027c-0.022,0 -0.045,0.003 -0.068,0.009c-0.023,0.006 -0.048,0.015 -0.073,0.028c-0.01,0.005 -0.019,0.006 -0.026,0.005c-0.007,-0.002 -0.013,-0.006 -0.018,-0.012c-0.004,-0.007 -0.006,-0.014 -0.007,-0.021c0,-0.008 0.002,-0.016 0.005,-0.023c0.004,-0.007 0.011,-0.013 0.02,-0.016c0.029,-0.015 0.058,-0.025 0.087,-0.031c0.029,-0.007 0.057,-0.01 0.082,-0.01c0.043,0 0.079,0.007 0.107,0.021c0.028,0.013 0.049,0.034 0.063,0.063c0.014,0.028 0.021,0.064 0.021,0.108l0,0.264c0,0.015 -0.004,0.027 -0.011,0.035c-0.007,0.008 -0.018,0.012 -0.032,0.012c-0.013,0 -0.024,-0.004 -0.032,-0.012c-0.007,-0.008 -0.011,-0.02 -0.011,-0.035l0,-0.071l0.009,0c-0.005,0.025 -0.015,0.046 -0.03,0.064c-0.015,0.018 -0.033,0.032 -0.055,0.042c-0.021,0.009 -0.046,0.014 -0.073,0.014Z" style="fill-rule:nonzero;"/></g><g transform="matrix(943.959,0,0,943.959,2792.2,1054.26)"><path d="M0.147,0.007c-0.015,0 -0.026,-0.004 -0.034,-0.012c-0.008,-0.008 -0.012,-0.02 -0.012,-0.035l0,-0.377l-0.06,0c-0.012,0 -0.021,-0.003 -0.028,-0.009c-0.007,-0.007 -0.01,-0.015 -0.01,-0.026c0,-0.011 0.003,-0.02 0.01,-0.026c0.007,-0.006 0.016,-0.009 0.028,-0.009l0.085,0l-0.025,0.024l0,-0.037c0,-0.065 0.016,-0.114 0.047,-0.147c0.032,-0.034 0.079,-0.054 0.14,-0.059l0.031,-0.002c0.01,-0.001 0.018,0 0.024,0.005c0.006,0.004 0.01,0.009 0.012,0.016c0.002,0.007 0.002,0.014 -0,0.021c-0.001,0.007 -0.004,0.013 -0.009,0.018c-0.005,0.005 -0.011,0.008 -0.018,0.009l-0.022,0.001c-0.04,0.003 -0.069,0.015 -0.087,0.036c-0.018,0.02 -0.027,0.05 -0.027,0.09l-0,0.04l-0.013,-0.015l0.115,0c0.013,0 0.022,0.003 0.029,0.009c0.007,0.006 0.01,0.015 0.01,0.026c-0,0.011 -0.003,0.019 -0.01,0.026c-0.007,0.006 -0.016,0.009 -0.029,0.009l-0.102,0l-0,0.377c0,0.031 -0.015,0.047 -0.045,0.047Z" style="fill-rule:nonzero;"/></g><g transform="matrix(943.959,0,0,943.959,3098.99,1054.26)"><path d="M0.298,0.009c-0.053,0 -0.098,-0.01 -0.136,-0.03c-0.037,-0.021 -0.066,-0.05 -0.087,-0.087c-0.021,-0.038 -0.031,-0.083 -0.031,-0.134c0,-0.051 0.01,-0.095 0.03,-0.133c0.021,-0.038 0.049,-0.068 0.084,-0.089c0.036,-0.021 0.077,-0.032 0.123,-0.032c0.033,0 0.062,0.006 0.088,0.017c0.027,0.011 0.049,0.026 0.068,0.047c0.019,0.021 0.033,0.046 0.042,0.076c0.01,0.029 0.015,0.063 0.015,0.1c0,0.011 -0.003,0.019 -0.01,0.025c-0.006,0.005 -0.015,0.008 -0.027,0.008l-0.342,0l0,-0.058l0.319,0l-0.017,0.014c0,-0.035 -0.005,-0.064 -0.016,-0.088c-0.01,-0.025 -0.025,-0.043 -0.045,-0.056c-0.019,-0.013 -0.044,-0.019 -0.073,-0.019c-0.032,0 -0.059,0.008 -0.082,0.023c-0.023,0.015 -0.04,0.036 -0.052,0.063c-0.012,0.027 -0.018,0.058 -0.018,0.093l0,0.006c0,0.06 0.014,0.105 0.043,0.136c0.029,0.031 0.07,0.046 0.124,0.046c0.021,-0 0.043,-0.003 0.065,-0.008c0.023,-0.005 0.044,-0.015 0.065,-0.029c0.01,-0.006 0.019,-0.009 0.027,-0.008c0.009,-0 0.016,0.003 0.021,0.008c0.005,0.005 0.009,0.011 0.01,0.018c0.001,0.007 0,0.014 -0.003,0.022c-0.003,0.008 -0.01,0.015 -0.019,0.021c-0.022,0.015 -0.048,0.027 -0.079,0.036c-0.03,0.008 -0.059,0.012 -0.087,0.012Z" style="fill-rule:nonzero;"/></g><g transform="matrix(943.959,0,0,943.959,3603.06,1054.26)"><path d="M0.284,0.009c-0.049,0 -0.092,-0.01 -0.128,-0.031c-0.036,-0.021 -0.064,-0.051 -0.083,-0.089c-0.019,-0.039 -0.029,-0.084 -0.029,-0.136c-0,-0.039 0.005,-0.073 0.016,-0.104c0.011,-0.031 0.027,-0.057 0.048,-0.078c0.021,-0.022 0.046,-0.039 0.075,-0.05c0.03,-0.011 0.064,-0.017 0.101,-0.017c0.023,0 0.048,0.004 0.074,0.011c0.026,0.007 0.05,0.019 0.072,0.036c0.007,0.005 0.012,0.012 0.014,0.019c0.002,0.007 0.002,0.014 -0,0.021c-0.001,0.007 -0.005,0.014 -0.01,0.019c-0.005,0.005 -0.011,0.007 -0.019,0.008c-0.007,0.001 -0.015,-0.002 -0.024,-0.007c-0.016,-0.012 -0.033,-0.021 -0.051,-0.026c-0.017,-0.005 -0.034,-0.008 -0.05,-0.008c-0.025,-0 -0.047,0.004 -0.066,0.012c-0.019,0.008 -0.035,0.02 -0.048,0.035c-0.013,0.015 -0.022,0.033 -0.029,0.055c-0.007,0.021 -0.01,0.046 -0.01,0.075c-0,0.057 0.013,0.101 0.04,0.134c0.027,0.032 0.064,0.048 0.113,0.048c0.016,-0 0.033,-0.002 0.05,-0.007c0.017,-0.005 0.034,-0.014 0.051,-0.026c0.009,-0.005 0.017,-0.007 0.024,-0.006c0.007,0.001 0.013,0.004 0.018,0.009c0.005,0.005 0.009,0.011 0.01,0.018c0.001,0.007 0.001,0.014 -0.002,0.021c-0.002,0.007 -0.007,0.013 -0.014,0.018c-0.021,0.016 -0.045,0.028 -0.07,0.035c-0.025,0.007 -0.05,0.011 -0.073,0.011Z" style="fill-rule:nonzero;"/></g><g transform="matrix(943.959,0,0,943.959,4042,1054.26)"><path d="M0.118,0.005c-0.014,0 -0.025,-0.004 -0.033,-0.013c-0.008,-0.009 -0.012,-0.021 -0.012,-0.036l-0,-0.399c-0,-0.016 0.004,-0.028 0.012,-0.036c0.008,-0.009 0.019,-0.013 0.033,-0.013c0.015,0 0.026,0.004 0.034,0.013c0.008,0.008 0.012,0.02 0.012,0.036l-0,0.399c-0,0.015 -0.004,0.027 -0.012,0.036c-0.007,0.009 -0.019,0.013 -0.034,0.013Zm-0,-0.605c-0.018,-0 -0.032,-0.005 -0.043,-0.014c-0.01,-0.01 -0.015,-0.023 -0.015,-0.039c-0,-0.017 0.005,-0.03 0.015,-0.039c0.011,-0.009 0.025,-0.014 0.043,-0.014c0.019,0 0.034,0.005 0.043,0.014c0.01,0.009 0.015,0.022 0.015,0.039c-0,0.016 -0.005,0.029 -0.015,0.039c-0.009,0.009 -0.024,0.014 -0.043,0.014Z" style="fill-rule:nonzero;"/></g><g transform="matrix(943.959,0,0,943.959,4265.72,1054.26)"><path d="M0.275,0.009c-0.039,0 -0.072,-0.007 -0.099,-0.021c-0.026,-0.014 -0.046,-0.034 -0.059,-0.061c-0.013,-0.027 -0.019,-0.059 -0.019,-0.098l-0,-0.246l-0.064,0c-0.012,0 -0.021,-0.003 -0.028,-0.009c-0.007,-0.007 -0.01,-0.015 -0.01,-0.026c-0,-0.011 0.003,-0.02 0.01,-0.026c0.007,-0.006 0.016,-0.009 0.028,-0.009l0.064,0l-0,-0.109c0,-0.015 0.004,-0.027 0.012,-0.034c0.008,-0.008 0.019,-0.012 0.034,-0.012c0.015,0 0.026,0.004 0.033,0.012c0.008,0.007 0.012,0.019 0.012,0.034l-0,0.109l0.121,0c0.013,0 0.022,0.003 0.029,0.009c0.007,0.006 0.01,0.015 0.01,0.026c-0,0.011 -0.003,0.019 -0.01,0.026c-0.007,0.006 -0.016,0.009 -0.029,0.009l-0.121,0l-0,0.238c-0,0.037 0.008,0.064 0.023,0.083c0.015,0.019 0.041,0.028 0.076,0.028c0.013,0 0.023,-0.001 0.032,-0.003c0.009,-0.003 0.016,-0.004 0.023,-0.004c0.006,-0.001 0.011,0.001 0.015,0.006c0.005,0.005 0.007,0.013 0.007,0.026c-0,0.009 -0.002,0.018 -0.005,0.026c-0.003,0.007 -0.008,0.012 -0.017,0.015c-0.008,0.003 -0.019,0.005 -0.032,0.007c-0.013,0.003 -0.025,0.004 -0.036,0.004Z" style="fill-rule:nonzero;"/></g><g transform="matrix(943.959,0,0,943.959,4598.94,1054.26)"><path d="M0.28,0.009c-0.048,0 -0.09,-0.01 -0.125,-0.031c-0.035,-0.021 -0.063,-0.05 -0.082,-0.088c-0.019,-0.038 -0.029,-0.083 -0.029,-0.134c-0,-0.039 0.005,-0.073 0.016,-0.104c0.011,-0.031 0.027,-0.058 0.048,-0.08c0.021,-0.022 0.045,-0.039 0.074,-0.05c0.029,-0.012 0.062,-0.018 0.098,-0.018c0.048,0 0.09,0.01 0.125,0.031c0.035,0.021 0.063,0.05 0.082,0.088c0.019,0.037 0.029,0.082 0.029,0.133c0,0.039 -0.006,0.074 -0.017,0.105c-0.011,0.031 -0.026,0.058 -0.047,0.08c-0.021,0.022 -0.046,0.039 -0.075,0.051c-0.029,0.011 -0.061,0.017 -0.097,0.017Zm0,-0.072c0.029,0 0.055,-0.007 0.076,-0.021c0.022,-0.014 0.039,-0.034 0.05,-0.061c0.012,-0.027 0.018,-0.06 0.018,-0.099c-0,-0.059 -0.013,-0.103 -0.039,-0.134c-0.026,-0.031 -0.061,-0.046 -0.105,-0.046c-0.029,0 -0.054,0.007 -0.076,0.021c-0.021,0.013 -0.038,0.033 -0.05,0.06c-0.012,0.027 -0.018,0.06 -0.018,0.099c-0,0.059 0.013,0.104 0.039,0.135c0.027,0.031 0.062,0.046 0.105,0.046Z" style="fill-rule:nonzero;"/></g><g transform="matrix(943.959,0,0,943.959,5127.55,1054.26)"></g></svg>